<svg xmlns="http://www.w3.org/2000/svg" viewBox="46.1 377.8 210.3 94.5"><g>
		<path style="fill:#DCE8EF;" d="M253.39,450.92c-0.32,2.59-1.74,4.93-3.9,6.4c-2.16,1.47-4.86,1.93-7.39,1.27
			c-2.1-0.55-3.92-1.84-5.14-3.6c-1.04,1.25-2.53,2.11-4.23,2.37c-2.54,0.38-5.02-0.66-6.52-2.62c-1.91,2.99-5.18,4.99-8.9,5.22
			c-3.95,0.25-7.64-1.56-9.89-4.6c-2.93,3.19-7.05,5.22-11.59,5.47c-5.79,0.32-11.21-2.32-14.55-6.81c-1.62,2.22-3.88,3.98-6.58,5
			c-4.68,1.77-9.84,0.97-13.72-1.91c-2.41,5.46-7.14,9.76-13.17,11.47c-8,2.28-16.48-0.52-21.59-6.84c-2.11,1.8-4.68,3.05-7.49,3.59
			c-3.96,0.76-8.01,0.02-11.41-2.01c-3.31,2.61-7.47,3.99-11.74,3.84c-4.11-0.14-8.01-1.68-11.08-4.32
			c-3.66,2.17-7.98,3.03-12.25,2.4c-3.43-0.51-6.61-1.95-9.22-4.12c-2.43,1.61-5.55,1.96-8.33,0.83c-3.36-1.37-5.57-4.64-5.58-8.28
			c0-0.32,0.02-0.64,0.06-0.95c1.07,2.23,3.27,3.79,5.85,3.99c1.98,0.15,3.86-0.54,5.26-1.79c2.8,1.77,6.32,2.16,9.51,0.95
			c3.44-1.31,5.94-4.28,6.67-7.82c2.76,1.77,6.3,2.12,9.45,0.75c3.83-1.69,6.18-5.55,5.98-9.66c2.54,0.28,5.13-0.24,7.39-1.49
			c2.45-1.36,4.37-3.5,5.45-6.05c2.26,6.55,8.72,10.92,15.84,10.34c5.19-0.42,9.61-3.38,12.08-7.6c1.8,2.49,4.58,4.21,7.8,4.61
			c3.43,0.43,6.75-0.71,9.16-2.95c2.87,5.37,8.89,8.48,15.08,7.52c4.18-0.65,7.72-3.04,9.92-6.36c2.64,3.36,6.67,5.45,11.07,5.61
			c3.77,0.13,7.38-1.18,10.15-3.56c2.66,5.33,7.76,9.11,13.73,10.05c5.25,0.82,10.53-0.64,14.57-3.9
			c4.34,3.48,10.29,4.04,15.17,1.56c1.25,1.75,3.22,2.93,5.45,3.12c3.25,0.28,6.31-1.59,7.55-4.61
			C253.24,447.08,253.63,449,253.39,450.92z"/>
		<path style="fill:#F9FBFC;" d="M252.31,445.43c-1.24,3.02-4.3,4.89-7.55,4.61c-2.23-0.19-4.2-1.37-5.45-3.12
			c-4.88,2.48-10.83,1.92-15.17-1.56c-4.04,3.26-9.32,4.72-14.57,3.9c-5.97-0.94-11.07-4.72-13.73-10.05
			c-2.77,2.38-6.38,3.69-10.15,3.56c-4.4-0.16-8.43-2.25-11.07-5.61c-2.2,3.32-5.74,5.71-9.92,6.36
			c-6.19,0.96-12.21-2.15-15.08-7.52c-2.41,2.24-5.73,3.38-9.16,2.95c-3.22-0.4-6-2.12-7.8-4.61c-2.47,4.22-6.89,7.18-12.08,7.6
			c-7.12,0.58-13.58-3.79-15.84-10.34c-1.08,2.55-3,4.69-5.45,6.05c-2.26,1.25-4.85,1.77-7.39,1.49c0.2,4.11-2.15,7.97-5.98,9.66
			c-3.15,1.37-6.69,1.02-9.45-0.75c-0.73,3.54-3.23,6.51-6.67,7.82c-3.19,1.21-6.71,0.82-9.51-0.95c-1.4,1.25-3.28,1.94-5.26,1.79
			c-2.58-0.2-4.78-1.76-5.85-3.99c0.33-3.24,2.42-6.08,5.48-7.35c1.57-0.65,3.26-0.83,4.87-0.56c0.11-1.15,0.52-2.29,1.24-3.28
			c1.83-2.53,5.09-3.44,7.91-2.37c1-1.65,2.39-3.07,4.08-4.11c2.62-1.6,5.71-2.14,8.66-1.57c0.27-1.99,1.25-3.87,2.84-5.26
			c0.93-0.81,2.01-1.39,3.14-1.73c-0.21-7.67,3.54-15.05,10.12-19.37c4.28-2.81,9.26-4.01,14.14-3.61
			c0.05-5.06,1.77-10.01,4.97-14.03c4.09-5.15,10.2-8.29,16.76-8.63c6.57-0.33,12.96,2.17,17.56,6.87
			c3.08,3.14,5.15,7.07,6.03,11.29c5.4-1.06,11.08-0.19,15.99,2.6c4.86,2.76,8.5,7.13,10.36,12.25c3.75-1.71,8.12-1.85,12.1-0.21
			c4.02,1.66,7.02,4.9,8.45,8.8c5.99-3.38,13.14-4.37,19.96-2.59c7.87,2.05,14.31,7.53,17.65,14.82c3.22-1.21,6.97-0.34,9.32,2.41
			C252.84,439.47,253.31,442.67,252.31,445.43z"/>
		<path style="fill:#DCE8EF;" d="M97.356,427.708c1.022,1.323,2.116,2.239,3.297,2.841c1.176,0.602,2.407,0.878,3.637,0.866
			c1.23-0.019,2.453-0.322,3.614-0.949c1.165-0.629,2.239-1.566,3.236-2.91c0.226,1.673-0.491,3.478-1.78,4.766
			c-1.285,1.299-3.153,2.082-5.037,2.092c-1.884,0.028-3.766-0.713-5.079-1.984C97.927,431.171,97.17,429.384,97.356,427.708z"/>
		<path style="fill:#DCE8EF;" d="M164.564,430.073c-1.059,2.585-3.127,4.759-5.631,6.229c-2.512,1.47-5.488,2.226-8.446,2.149
			c-2.959-0.067-5.895-0.973-8.329-2.568c-2.428-1.594-4.384-3.872-5.307-6.51c2.256,1.623,4.456,2.871,6.752,3.717
			c2.286,0.85,4.629,1.299,6.985,1.364c2.356,0.06,4.721-0.271,7.048-1.004C159.973,432.721,162.233,431.583,164.564,430.073z"/>
		<path style="fill:#DCE8EF;" d="M181.125,427.775c2.543,3.128,5.267,5.509,8.29,7.158c2.989,1.677,6.222,2.577,9.484,2.813
			c3.264,0.192,6.583-0.287,9.771-1.541c3.202-1.248,6.228-3.236,9.161-6.002c-0.729,3.998-3.344,7.681-6.885,10.135
			c-3.543,2.473-8.039,3.688-12.444,3.394c-4.401-0.302-8.702-2.084-11.88-5.015C183.431,435.828,181.334,431.826,181.125,427.775z"
			/>
	</g></svg>