<svg xmlns="http://www.w3.org/2000/svg" viewBox="267.2 369.4 220.0 98.6"><g>
		<path style="fill:#DCE8EF;" d="M483.64,440.6c-1.28,3.58-4.42,6.18-8.19,6.77c-2.25,0.35-4.52-0.05-6.47-1.09
			c-0.86,2.64-3.1,4.72-6.01,5.26c-3.62,0.65-7.12-1.3-8.53-4.54c-2.49,2.97-6.04,4.97-10,5.51c-4.78,0.66-9.54-0.9-12.99-4.11
			c-3.22,5.45-8.59,9.5-15.04,10.95c-7.82,1.77-15.86-0.6-21.45-6.01c-2.72,5.85-8.18,10.19-14.8,11.33
			c-7.8,1.34-15.54-2-19.93-8.34c-3.18,2.56-7.39,3.72-11.61,2.96c-5.14-0.93-9.27-4.53-11-9.27c-1.77,1.21-3.84,1.99-6.06,2.23
			c-2.67,0.29-5.31-0.25-7.6-1.47c-4.64,5.04-11.24,8.06-18.31,8.1c-7.17,0.04-13.89-2.96-18.6-8.08c-2.7,1.33-5.98,1.2-8.62-0.54
			c-2.72-1.8-4.14-4.92-3.86-8.02c1.36,2.87,4.24,4.7,7.41,4.73c2.34,0.02,4.54-0.95,6.09-2.6c4.86,4.6,11.9,6.24,18.37,4.13
			c5.27-1.72,9.37-5.66,11.38-10.61c1.8,3.02,4.94,5.14,8.58,5.58c4.07,0.5,8.02-1.16,10.52-4.23c3.31,6.3,10.69,9.51,17.69,7.42
			c6.26-1.87,10.43-7.46,10.76-13.68c2.25,2.38,5.3,3.93,8.63,4.31c3.66,0.41,7.3-0.62,10.17-2.83c4.07,3.52,9.85,4.51,14.94,2.38
			c4.43-1.85,7.54-5.73,8.51-10.23c2.62,4.63,7.43,7.73,12.9,8.09c5.34,0.34,10.39-1.99,13.59-6.06c1.07,3.11,3.77,5.41,7.06,5.93
			c2.5,0.4,5-0.3,6.92-1.82c2.03,2.73,5.43,4.15,8.85,3.62c1.81-0.28,3.44-1.09,4.74-2.27c1.7,1.98,4.18,3.3,6.99,3.48
			c5.51,0.35,10.26-3.81,10.65-9.32c0.84,0.51,1.61,1.15,2.28,1.9C484.14,433,484.93,437.01,483.64,440.6z"/>
		<path style="fill:#F9FBFC;" d="M479.32,428.26c-0.39,5.51-5.14,9.67-10.65,9.32c-2.81-0.18-5.29-1.5-6.99-3.48
			c-1.3,1.18-2.93,1.99-4.74,2.27c-3.42,0.53-6.82-0.89-8.85-3.62c-1.92,1.52-4.42,2.22-6.92,1.82c-3.29-0.52-5.99-2.82-7.06-5.93
			c-3.2,4.07-8.25,6.4-13.59,6.06c-5.47-0.36-10.28-3.46-12.9-8.09c-0.97,4.5-4.08,8.38-8.51,10.23
			c-5.09,2.13-10.87,1.14-14.94-2.38c-2.87,2.21-6.51,3.24-10.17,2.83c-3.33-0.38-6.38-1.93-8.63-4.31
			c-0.33,6.22-4.5,11.81-10.76,13.68c-7,2.09-14.38-1.12-17.69-7.42c-2.5,3.07-6.45,4.73-10.52,4.23c-3.64-0.44-6.78-2.56-8.58-5.58
			c-2.01,4.95-6.11,8.89-11.38,10.61c-6.47,2.11-13.51,0.47-18.37-4.13c-1.55,1.65-3.75,2.62-6.09,2.6
			c-3.17-0.03-6.05-1.86-7.41-4.73c-0.68-0.25-1.32-0.62-1.9-1.09c-1.74-1.43-2.66-3.64-2.43-5.89c0.23-2.25,1.57-4.23,3.57-5.28
			c1.63-0.86,3.53-1,5.24-0.44c0.76-2.72,2.84-5,5.7-5.92c1.84-0.6,3.75-0.54,5.47,0.05c2.25-5.75,6.97-10.34,13.01-12.34
			c5.33-1.76,11.01-1.31,15.87,1.05c0.91-2,2.48-3.7,4.54-4.76c1.64-0.84,3.43-1.2,5.18-1.09c1.09-9.06,7.39-16.89,16.43-19.69
			c7.9-2.44,16.25-0.52,22.24,4.58c3.15-9.5,11.29-16.81,21.53-18.63c9.92-1.77,19.77,1.98,26.05,9.33
			c6.52-3.93,14.91-3.48,21.02,1.32c5.29,4.16,7.81,10.76,6.89,17.18c3.16-0.95,6.66-0.4,9.4,1.64c2.84,2.12,4.39,5.47,4.26,8.9
			c5.17-1.76,11.03-0.99,15.65,2.38C477.07,417.03,479.59,422.61,479.32,428.26z"/>
		<path style="fill:#DCE8EF;" d="M306.406,433.734c2.037,1.459,3.901,2.412,5.786,2.966c1.866,0.572,3.709,0.724,5.514,0.581
			c1.802-0.174,3.587-0.649,5.329-1.526c1.753-0.876,3.433-2.129,5.19-3.917c0.215,2.524-0.912,5.12-2.791,7.032
			c-1.881,1.926-4.542,3.156-7.296,3.391c-2.752,0.234-5.586-0.51-7.766-2.091C308.191,438.617,306.638,436.25,306.406,433.734z"/>
		<path style="fill:#DCE8EF;" d="M343.698,423.81c2.989,2.704,6.044,4.644,9.282,5.813c3.209,1.202,6.542,1.6,9.802,1.338
			c3.255-0.307,6.462-1.285,9.423-3.01c2.975-1.72,5.663-4.146,8.141-7.326c-0.112,4.063-2.137,8.1-5.263,11.064
			c-3.126,2.983-7.385,4.867-11.783,5.247c-4.395,0.371-8.918-0.736-12.504-3.15C347.202,431.419,344.52,427.782,343.698,423.81z"/>
		<path style="fill:#DCE8EF;" d="M399.178,422.977c1.424,1.229,2.845,2.096,4.338,2.615c1.479,0.534,3,0.705,4.489,0.586
			c1.486-0.141,2.952-0.577,4.319-1.352c1.375-0.773,2.632-1.867,3.823-3.323c-0.009,1.897-0.934,3.797-2.384,5.192
			c-1.45,1.405-3.442,2.294-5.499,2.471c-2.056,0.174-4.172-0.352-5.84-1.492C400.754,426.555,399.519,424.84,399.178,422.977z"/>
		<path style="fill:#DCE8EF;" d="M452.771,430.343c1.424,1.229,2.845,2.096,4.338,2.615c1.479,0.534,3,0.705,4.489,0.586
			c1.486-0.141,2.952-0.577,4.319-1.352c1.375-0.773,2.632-1.866,3.823-3.323c-0.009,1.897-0.934,3.797-2.384,5.192
			c-1.45,1.405-3.442,2.294-5.499,2.471c-2.056,0.174-4.172-0.352-5.84-1.492C454.347,433.921,453.112,432.206,452.771,430.343z"/>
	</g></svg>