<svg xmlns="http://www.w3.org/2000/svg" viewBox="20.2 31.4 159.6 108.8"><g>
		<path style="fill:#DCE8EF;" d="M174.01,108.65c-2.8,4.25-7.42,6.96-12.49,7.34c-2.92,0.21-5.81-0.36-8.37-1.61
			c-0.82,1.36-1.84,2.63-3.06,3.75c-3.92,3.6-9.12,5.03-14.06,4.26c-0.18,0.79-0.42,1.57-0.71,2.34c-1.94,5.14-6,9.21-11.14,11.17
			c-5.14,1.96-10.88,1.62-15.75-0.93c-4.19-2.2-7.41-5.85-9.06-10.24c-14.03,2.53-28.4-4.43-34.93-17.52
			c-5.1,2.77-11.12,3.64-16.95,2.28c-7.52-1.77-13.67-6.99-16.65-13.97c-1.43-0.29-2.8-0.92-3.98-1.84
			c-2.29-1.79-3.64-4.51-3.69-7.41c-0.05-2.9,1.21-5.67,3.43-7.54c1.76-1.47,3.98-2.26,6.24-2.25c-2.75,2.99-2.79,7.57-0.09,10.6
			c0.83,0.93,1.83,1.62,2.92,2.05c0.75,6.38,5.12,11.86,11.34,13.93c5.92,1.96,12.33,0.45,16.74-3.71
			c3.36,3.52,7.85,5.82,12.74,6.48c4.43,0.6,8.9-0.18,12.83-2.19c0.55,4.82,3.82,8.99,8.52,10.6c4.45,1.53,9.31,0.46,12.7-2.63
			c4.61,3.49,10.66,4.64,16.32,2.96c5.27-1.56,9.48-5.37,11.61-10.28c4.04,2.41,9,2.88,13.47,1.18c2.66-1,4.94-2.7,6.65-4.84
			c3.81,1.36,8.08,0.18,10.66-2.97c2.67-3.26,2.91-7.86,0.61-11.38c2.75,1.96,4.85,4.74,5.97,8.01
			C177.49,99.1,176.81,104.41,174.01,108.65z"/>
		<path style="fill:#F9FBFC;" d="M169.25,97.66c-2.58,3.15-6.85,4.33-10.66,2.97c-1.71,2.14-3.99,3.84-6.65,4.84
			c-4.47,1.7-9.43,1.23-13.47-1.18c-2.13,4.91-6.34,8.72-11.61,10.28c-5.66,1.68-11.71,0.53-16.32-2.96
			c-3.39,3.09-8.25,4.16-12.7,2.63c-4.7-1.61-7.97-5.78-8.52-10.6c-3.93,2.01-8.4,2.79-12.83,2.19c-4.89-0.66-9.38-2.96-12.74-6.48
			c-4.41,4.16-10.82,5.67-16.74,3.71c-6.22-2.07-10.59-7.55-11.34-13.93c-1.09-0.43-2.09-1.12-2.92-2.05
			c-2.7-3.03-2.66-7.61,0.09-10.6c1.76-4.12,5.36-7.29,9.85-8.43c2.78-0.7,5.64-0.56,8.24,0.32c3.16-6.7,9.2-11.73,16.58-13.56
			c3.52-0.87,7.1-0.95,10.54-0.3c4.41-12.36,16.43-20.68,29.89-20.11c11.65,0.48,21.67,7.51,26.34,17.63
			c4.06-0.66,8.27,0.07,11.92,2.17c3.76,2.16,6.57,5.56,8.02,9.55c6.19-0.19,12.1,3.17,15.03,8.86c2.25,4.36,2.37,9.35,0.61,13.67
			C172.16,89.8,171.92,94.4,169.25,97.66z"/>
		<path style="fill:#DCE8EF;" d="M151.089,95.285c1.225,1.263,2.375,2.034,3.532,2.528c1.153,0.491,2.275,0.689,3.396,0.68
			c1.121-0.021,2.236-0.243,3.377-0.759c1.144-0.519,2.277-1.312,3.478-2.601c0.431,1.729-0.227,3.678-1.538,5.076
			c-1.306,1.411-3.281,2.274-5.274,2.282c-1.993,0.03-3.984-0.788-5.32-2.17C151.402,98.953,150.702,97.021,151.089,95.285z"/>
		<path style="fill:#DCE8EF;" d="M77.214,93.632c-0.815,2.29-2.572,4.226-4.727,5.537c-2.163,1.312-4.755,1.989-7.33,1.922
			c-2.576-0.057-5.132-0.866-7.227-2.285c-2.087-1.418-3.745-3.442-4.438-5.774c2.027,1.316,3.927,2.31,5.883,2.98
			c1.946,0.674,3.909,1.025,5.882,1.081c1.974,0.05,3.954-0.202,5.932-0.777C73.179,95.746,75.127,94.848,77.214,93.632z"/>
		<path style="fill:#DCE8EF;" d="M98.382,102.793c1.879,3.121,4.28,5.176,6.89,6.275c2.599,1.101,5.348,1.266,7.865,0.578
			c2.516-0.677,4.817-2.189,6.505-4.45c1.703-2.257,2.761-5.236,2.821-8.88c2.365,2.827,2.895,7.274,1.354,11.077
			c-0.733,1.921-1.997,3.657-3.562,5.067c-1.587,1.387-3.502,2.429-5.56,2.977c-4.112,1.148-8.715,0.18-11.922-2.389
			C99.531,110.529,97.77,106.421,98.382,102.793z"/>
	</g></svg>