<svg xmlns="http://www.w3.org/2000/svg" viewBox="16.0 153.5 211.5 106.5"><g>
		<path style="fill:#DCE8EF;" d="M221.24,234.19c-3.58,4.34-9.4,6.12-14.8,4.56c-3.61-1.05-6.58-3.47-8.35-6.63
			c-2.65,3.73-6.56,6.49-11.13,7.68c-5.48,1.42-11.21,0.42-15.81-2.59c-1.98,3.25-5.18,5.74-9.09,6.75c-4.8,1.24-9.74,0.01-13.35-3
			c-3.38,7.78-10.4,13.76-19.22,15.54c-11.64,2.36-23.22-3.26-28.73-13.37c-3.47,3.96-8.79,6.05-14.26,5.25
			c-6.85-1.01-12.17-6.3-13.33-12.96c-4.65,2.68-10.25,3.62-15.72,2.38c-7.6-1.72-13.6-7.32-15.94-14.56
			c-3.3,1.39-7.02,1.67-10.58,0.69c-5.66-1.55-10.03-6.04-11.44-11.74c-0.47-1.93-0.58-3.88-0.35-5.79
			c1.83,5.36,6.07,9.66,11.55,11.35c5.39,1.67,11.24,0.6,15.78-2.7c3.72,5.05,9.57,8.21,15.96,8.48c6.42,0.27,12.54-2.41,16.68-7.16
			c2.57,4.54,7.31,7.57,12.68,7.89c4.71,0.27,9.18-1.59,12.3-4.89c4.47,6.62,11.58,11.17,19.68,12.34
			c9.05,1.31,18.11-1.77,24.46-8.14c3.28,3.58,7.66,6.05,12.54,6.98c5.3,1.01,10.74,0.1,15.38-2.49c3.77,2.58,8.37,3.73,12.97,3.17
			c4.1-0.49,7.88-2.3,10.81-5.1c3.24,4.24,8.56,6.34,13.51,5.21c5.13-1.16,9.18-5.62,10.1-11.22
			C225.36,224.85,224.52,230.23,221.24,234.19z"/>
		<path style="fill:#F9FBFC;" d="M223.54,220.12c-0.92,5.6-4.97,10.06-10.1,11.22c-4.95,1.13-10.27-0.97-13.51-5.21
			c-2.93,2.8-6.71,4.61-10.81,5.1c-4.6,0.56-9.2-0.59-12.97-3.17c-4.64,2.59-10.08,3.5-15.38,2.49c-4.88-0.93-9.26-3.4-12.54-6.98
			c-6.35,6.37-15.41,9.45-24.46,8.14c-8.1-1.17-15.21-5.72-19.68-12.34c-3.12,3.3-7.59,5.16-12.3,4.89
			c-5.37-0.32-10.11-3.35-12.68-7.89c-4.14,4.75-10.26,7.43-16.68,7.16c-6.39-0.27-12.24-3.43-15.96-8.48
			c-4.54,3.3-10.39,4.37-15.78,2.7c-5.48-1.69-9.72-5.99-11.55-11.35c0.44-3.74,2.18-7.26,5.03-9.91c3.8-3.54,9.04-5.02,14.07-4.07
			c0.19-2.01,0.94-3.93,2.17-5.56c1.78-2.35,4.43-3.89,7.36-4.26c2.65-0.34,5.31,0.29,7.51,1.78c2.26-3.97,6.28-6.78,11-7.39
			c3.1-0.4,6.14,0.18,8.77,1.55c5.08-14.01,19.01-23.17,34.23-21.91c14.32,1.19,25.98,11.29,29.56,24.69
			c5.69-0.81,11.56,0.83,16.06,4.69c4.03,3.46,6.46,8.29,6.97,13.39c4.98-3.11,11.15-4.02,16.98-2.25
			c5.26,1.59,9.55,5.16,12.11,9.78c3.91-3.17,9.18-4.41,14.26-3.07c4.51,1.19,8.15,4.22,10.2,8.16c3.2,1.22,5.92,3.6,7.54,6.78
			C223.18,219.23,223.37,219.67,223.54,220.12z"/>
		<path style="fill:#DCE8EF;" d="M142.602,219.944c1.023,1.323,2.116,2.239,3.297,2.842c1.176,0.602,2.406,0.878,3.637,0.866
			c1.23-0.019,2.453-0.322,3.614-0.949c1.165-0.629,2.239-1.566,3.236-2.91c0.226,1.673-0.491,3.479-1.78,4.766
			c-1.285,1.299-3.153,2.082-5.037,2.092c-1.884,0.028-3.766-0.713-5.079-1.984C143.173,223.407,142.417,221.621,142.602,219.944z"
			/>
		<path style="fill:#DCE8EF;" d="M59.296,210.571c-0.815,2.29-2.572,4.226-4.727,5.537c-2.163,1.312-4.755,1.989-7.33,1.922
			c-2.576-0.057-5.132-0.866-7.226-2.285c-2.087-1.418-3.745-3.442-4.438-5.774c2.027,1.316,3.927,2.31,5.883,2.98
			c1.946,0.674,3.909,1.025,5.882,1.081c1.973,0.05,3.954-0.202,5.932-0.777C55.261,212.685,57.209,211.786,59.296,210.571z"/>
		<path style="fill:#DCE8EF;" d="M87.392,209.462c2.543,3.128,5.267,5.509,8.29,7.158c2.989,1.677,6.222,2.576,9.484,2.813
			c3.264,0.192,6.583-0.287,9.771-1.541c3.202-1.248,6.227-3.236,9.161-6.002c-0.729,3.998-3.344,7.681-6.885,10.135
			c-3.543,2.473-8.039,3.688-12.444,3.394c-4.401-0.302-8.702-2.084-11.879-5.015C89.698,217.516,87.6,213.513,87.392,209.462z"/>
		<path style="fill:#DCE8EF;" d="M168.451,220.958c1.187,4.503,4.458,6.736,7.725,6.848c3.268,0.105,6.671-1.897,8.174-6.306
			c0.951,2.165,0.46,5.003-1.193,7.058c-1.624,2.089-4.371,3.367-7.117,3.244c-2.747-0.067-5.396-1.535-6.876-3.724
			C167.655,225.914,167.365,223.053,168.451,220.958z"/>
	</g></svg>