<svg xmlns="http://www.w3.org/2000/svg" viewBox="108.1 247.6 368.1 136.9"><g>
		<path style="fill:#DCE8EF;" d="M473.17,328.72c-0.36,6.52-5.02,12-11.4,13.42c-5.29,1.18-10.7-0.69-14.15-4.66
			c-1.88,1.78-4.25,3.05-6.9,3.57c-4.17,0.83-8.42-0.28-11.62-2.88c-3.47,4.01-8.33,6.71-13.74,7.47
			c-6.51,0.92-13.01-1.08-17.84-5.34c-1.83,1.94-4.19,3.37-6.87,4.07c-4.47,1.18-9.19,0.14-12.73-2.69
			c-3.13,4.28-7.91,7.22-13.35,7.96c-4.23,0.57-8.44-0.24-12.06-2.19c-2.57,2.86-5.99,4.93-9.87,5.82
			c-5.05,1.17-10.29,0.22-14.56-2.5c-3.29,6.04-8.33,11.05-14.58,14.29c-8.39,4.35-18.14,5.09-27.02,2.13
			c-4.4,6.77-11.43,11.6-19.61,13.14c-9.51,1.79-19.18-1.13-26.08-7.62c-9.28,7.29-21.37,10.33-33.21,8.06
			c-12.08-2.32-22.37-9.9-28.22-20.47c-5.98,3.21-12.86,4.63-19.82,3.91c-8.42-0.87-16.09-4.79-21.7-10.85
			c-2.63,2.8-6.25,4.57-10.2,4.84c-5.69,0.4-11.14-2.38-14.16-7.21c-2.34-3.75-2.93-8.25-1.75-12.39c1.76,5.06,6.18,8.81,11.59,9.65
			c5.39,0.83,10.72-1.42,13.92-5.68c2.38,4.02,6.69,6.6,11.47,6.74c4.47,0.12,8.64-1.92,11.3-5.35c2.72,2.94,6.89,4.28,10.95,3.27
			c3.37-0.84,6.04-3.15,7.43-6.12c7.93,10.96,21.9,16.18,35.33,12.71c11.6-3,20.42-11.87,23.65-22.89
			c2.99,7.21,9.88,12.41,18.11,12.92c9.25,0.57,17.55-4.95,20.82-13.21c2.91,9.69,11.52,16.68,21.75,17.43
			c9.4,0.68,18.21-4.06,22.9-11.95c3.3,5.01,9.07,7.95,15.18,7.55c5.92-0.4,11.11-3.86,13.8-8.97c3.49,3.24,8.33,4.71,13.11,3.87
			c4.38-0.77,8.16-3.37,10.43-7.05c3.18,3.24,8.07,4.35,12.43,2.61c4.18-1.66,6.91-5.56,7.2-9.88c9.95,7.94,24.03,8.24,34.3,0.79
			c3.14,4.7,8.5,7.53,14.24,7.42c4.84-0.09,9.32-2.26,12.38-5.82c3.13,2.7,7.53,3.57,11.51,2.15c3.03-1.08,5.41-3.33,6.68-6.14
			C472.95,324.54,473.29,326.6,473.17,328.72z"/>
		<path style="fill:#F9FBFC;" d="M472.21,322.65c-1.27,2.81-3.65,5.06-6.68,6.14c-3.98,1.42-8.38,0.55-11.51-2.15
			c-3.06,3.56-7.54,5.73-12.38,5.82c-5.74,0.11-11.1-2.72-14.24-7.42c-10.27,7.45-24.35,7.15-34.3-0.79
			c-0.29,4.32-3.02,8.22-7.2,9.88c-4.36,1.74-9.25,0.63-12.43-2.61c-2.27,3.68-6.05,6.28-10.43,7.05
			c-4.78,0.84-9.62-0.63-13.11-3.87c-2.69,5.11-7.88,8.57-13.8,8.97c-6.11,0.4-11.88-2.54-15.18-7.55
			c-4.69,7.89-13.5,12.63-22.9,11.95c-10.23-0.75-18.84-7.74-21.75-17.43c-3.27,8.26-11.57,13.78-20.82,13.21
			c-8.23-0.51-15.12-5.71-18.11-12.92c-3.23,11.02-12.05,19.89-23.65,22.89c-13.43,3.47-27.4-1.75-35.33-12.71
			c-1.39,2.97-4.06,5.28-7.43,6.12c-4.06,1.01-8.23-0.33-10.95-3.27c-2.66,3.43-6.83,5.47-11.3,5.35
			c-4.78-0.14-9.09-2.72-11.47-6.74c-3.2,4.26-8.53,6.51-13.92,5.68c-5.41-0.84-9.83-4.59-11.59-9.65c0.33-1.21,0.82-2.38,1.47-3.5
			c2.7-4.67,7.62-7.59,12.98-7.71c0.02-3.32,1.5-6.56,4.25-8.75c3.48-2.77,8.16-3.18,11.98-1.29c1.27-2.02,3.28-3.46,5.61-4
			c0.52-0.12,1.05-0.2,1.58-0.23c-0.12-0.95-0.15-1.91-0.09-2.88c0.26-4.18,2.23-8.07,5.44-10.75c3.06-2.55,7-3.8,10.96-3.48
			c-0.38-4.52,1.21-9.1,4.55-12.44c2.47-2.48,5.62-4,8.93-4.48c4.52-15.84,18.63-27.45,35.52-28.44c15.87-0.93,30.4,7.74,37.37,21.4
			c3.9-2.39,8.75-3.04,13.29-1.55c5.82,1.9,9.97,6.93,10.84,12.87c7.8-3.44,16.71-3.76,24.82-0.75c7.24,2.69,13.22,7.79,17.03,14.32
			c5.35-4.39,12.57-6.17,19.57-4.5c6.48,1.56,11.78,5.84,14.74,11.51c3.84-4.42,9.4-7.13,15.43-7.31
			c5.39-0.16,10.53,1.73,14.47,5.13c3.26-12.22,14.56-20.9,27.57-20.51c12.52,0.38,22.95,9.04,25.97,20.73
			c4.47-0.29,8.97,0.82,12.86,3.25c3.27,2.04,5.88,4.9,7.64,8.22c2.25-0.33,4.59-0.13,6.85,0.64
			C467.53,315.54,470.7,318.73,472.21,322.65z"/>
		<path style="fill:#DCE8EF;" d="M266.808,324.702c1.43,2.003,3.036,3.44,4.809,4.392c1.766,0.952,3.656,1.401,5.545,1.382
			c1.888-0.028,3.765-0.518,5.509-1.508c1.75-0.992,3.324-2.46,4.715-4.493c0.241,2.472-0.859,5.098-2.774,6.968
			c-1.909,1.886-4.646,3.017-7.406,3.032c-2.76,0.04-5.519-1.029-7.468-2.872C267.784,329.775,266.627,327.177,266.808,324.702z"/>
		<path style="fill:#DCE8EF;" d="M228.296,326.753c1.266,1.412,2.508,2.317,3.788,2.903c1.276,0.583,2.552,0.832,3.828,0.821
			c1.275-0.022,2.544-0.299,3.806-0.909c1.266-0.614,2.487-1.543,3.727-2.981c0.393,1.878-0.354,3.964-1.786,5.456
			c-1.427,1.507-3.555,2.424-5.703,2.433c-2.147,0.032-4.292-0.836-5.752-2.311C228.742,330.703,227.95,328.638,228.296,326.753z"/>
		<path style="fill:#DCE8EF;" d="M165.262,331.156c2.543,3.128,5.267,5.509,8.29,7.158c2.989,1.676,6.223,2.577,9.484,2.813
			c3.264,0.192,6.583-0.287,9.771-1.541c3.202-1.248,6.228-3.236,9.161-6.002c-0.729,3.998-3.344,7.681-6.885,10.135
			c-3.543,2.473-8.039,3.688-12.444,3.394c-4.401-0.302-8.702-2.084-11.88-5.015C167.568,339.209,165.47,335.207,165.262,331.156z"
			/>
		<path style="fill:#DCE8EF;" d="M332.377,326.488c2.989,2.704,6.044,4.644,9.282,5.813c3.209,1.202,6.542,1.6,9.802,1.338
			c3.255-0.307,6.462-1.285,9.423-3.01c2.975-1.72,5.663-4.146,8.141-7.326c-0.112,4.063-2.137,8.1-5.263,11.064
			c-3.126,2.983-7.385,4.867-11.783,5.247c-4.395,0.371-8.918-0.736-12.504-3.15C335.881,334.097,333.199,330.461,332.377,326.488z"
			/>
		<path style="fill:#DCE8EF;" d="M414.112,318.608c2.089,1.973,4.271,3.407,6.604,4.276c2.312,0.893,4.733,1.197,7.101,1.006
			c2.364-0.222,4.692-0.947,6.82-2.216c2.138-1.265,4.05-3.046,5.768-5.351c-0.141,2.892-1.61,5.748-3.849,7.843
			c-2.238,2.108-5.267,3.437-8.393,3.708c-3.125,0.263-6.339-0.513-8.902-2.214C416.69,323.991,414.757,321.425,414.112,318.608z"/>
	</g></svg>